<svg width="174" height="52" viewBox="0 0 174 52" fill="none" xmlns="http://www.w3.org/2000/svg">
<g clip-path="url(#clip0)">
<path d="M51.582 20.854C50.097 17.265 47.7054 14.1312 44.6457 11.765C41.5859 9.39871 37.9647 7.88264 34.1431 7.36783C30.3215 6.85302 26.4329 7.35746 22.8647 8.83088C19.2966 10.3043 16.1736 12.6952 13.8069 15.7654C11.4402 18.8356 9.91259 22.4778 9.37618 26.329C8.83977 30.1802 9.31335 34.106 10.7497 37.7151C12.1861 41.3243 14.535 44.4906 17.5626 46.8988C20.5901 49.3069 24.1904 50.8726 28.0047 51.4399C27.5051 49.6239 26.9968 47.6167 26.5489 45.4878C27.852 46.3405 29.2236 47.0816 30.6493 47.7036V47.7036C30.6493 47.7036 30.7526 49.5804 30.8905 51.6745C32.4309 51.7013 33.9699 51.5644 35.4819 51.2661C35.4428 51.0477 35.4428 50.8241 35.4819 50.6057C35.7317 48.9809 36.4208 46.0526 36.5587 44.1671C37.5521 43.2297 38.3949 42.1422 39.0568 40.9434V40.9434L39.0051 41.3257C38.5313 45.0273 37.5407 48.9809 36.9377 50.0757C36.7425 50.4381 36.5022 50.7739 36.2227 51.0749C39.3409 50.3371 42.2627 48.924 44.7856 46.9337C47.3084 44.9433 49.3719 42.4233 50.833 39.5484C52.2942 36.6735 53.118 33.5124 53.2473 30.2844C53.3766 27.0563 52.8084 23.8385 51.582 20.854V20.854ZM50.3157 24.1472C49.9367 24.5208 49.1528 24.7728 49.0235 23.6432C48.8943 22.5136 48.8599 21.7229 48.8599 21.7229C48.8599 21.7229 47.1973 18.7426 46.5771 18.7078C45.9569 18.673 41.555 21.7229 40.392 23.0524C39.3842 24.1733 39.186 24.0951 39.186 26.0675C39.186 27.5534 39.3755 33.1666 39.2722 37.459L32.2515 39.3446C30.0448 39.9834 27.8008 40.4825 25.5324 40.8391L24.671 35.7733H24.5504L22.3365 24.3297C22.3365 24.3297 19.0544 23.0784 17.8484 22.7396C17.2822 22.4897 16.6568 22.4084 16.0463 22.5054C15.4357 22.6024 14.8654 22.8736 14.4027 23.287C13.9307 23.7039 13.5532 24.2185 13.2961 24.7958C13.0389 25.3731 12.9081 25.9995 12.9124 26.6323C13.0945 27.0362 13.2332 27.4586 13.3259 27.8922C13.369 28.3093 12.2922 28.2659 11.6031 28.2659C10.9139 28.2659 10.8106 27.0146 11.3533 25.5462C11.7767 24.417 12.3014 23.3292 12.9211 22.2964C13.3871 21.3738 13.9882 20.5273 14.7042 19.7853C14.7042 19.7853 14.8248 19.4898 15.781 19.5767C16.7372 19.6636 22.0522 19.9503 22.0522 19.9503L22.0953 17.9779C27.8723 17.1733 33.6988 16.7842 39.5306 16.8136C39.5306 17.3436 39.5306 17.8736 39.5306 18.4037C41.7395 17.3869 44.1181 16.7974 46.5426 16.6658C46.6724 16.6625 46.8009 16.6918 46.9166 16.7509C47.0324 16.8101 47.1318 16.8973 47.2059 17.0047C47.4988 17.3784 49.282 19.6115 49.4887 19.933C50.0678 20.7677 50.5943 21.6384 51.0651 22.5397C50.9037 23.1104 50.6506 23.6506 50.3157 24.1385V24.1472Z" fill="#FDC305"/>
<path d="M48.6364 18.8295C49.0413 19.3508 49.3945 19.8113 49.4978 19.9504C50.0769 20.7851 50.6034 21.6558 51.0742 22.5571C50.9103 23.1091 50.6603 23.6312 50.3334 24.1038C49.9544 24.4774 49.1705 24.7294 49.0413 23.5998C48.9121 22.4702 48.8604 21.723 48.8604 21.723C48.8604 21.723 47.1978 18.7426 46.5776 18.7078C45.9574 18.6731 41.5555 21.723 40.3925 23.0524C39.3847 24.1733 39.1865 24.0951 39.1865 26.0675C39.1865 27.3709 39.333 31.8458 39.2985 35.8255C40.8577 35.9993 43.1491 36.4337 43.8382 37.459C43.8382 37.459 43.5884 31.2202 50.566 34.4873C50.566 34.4873 50.8072 25.9806 60.438 28.1616C57.1641 24.2844 53.1506 21.1108 48.6364 18.8295V18.8295Z" fill="#F06351"/>
<path d="M39.5653 16.8135C39.6004 11.9986 39.1967 7.19065 38.3593 2.45029C38.3593 2.45029 38.2301 1.3207 37.6099 2.24175C37.0981 3.34286 36.7498 4.51397 36.5762 5.71742C32.8937 5.47908 29.1974 5.57797 25.5327 6.01285C24.8263 3.62333 23.6203 2.53718 23.0431 2.82392C22.466 3.11067 22.3971 5.67397 22.3971 5.67397L22.1128 17.9778C27.8955 17.1724 33.7278 16.7833 39.5653 16.8135V16.8135Z" fill="#F06351"/>
<path d="M39.0651 40.9433C39.1771 40.0136 39.2374 38.7797 39.2718 37.4155L32.2515 39.3011C30.0459 39.9545 27.8019 40.4682 25.5327 40.8391L26.4889 45.1836C26.4889 45.2792 26.4889 45.3748 26.5492 45.4704C27.8522 46.323 29.2237 47.0642 30.6494 47.6861C32.7328 46.6815 34.7171 45.4799 36.5757 44.0975V44.1496C37.5646 43.2169 38.4044 42.1353 39.0651 40.9433V40.9433Z" fill="#E55645"/>
<path d="M27.5659 14.0938C27.5229 14.0069 28.4273 14.6847 28.7805 14.8932C29.1337 15.1018 29.3059 15.2582 29.3059 15.4059C29.3059 15.5536 29.082 15.7013 28.7719 15.7013C28.4618 15.7013 27.9794 15.5971 27.9105 15.4754C27.8416 15.3538 28.4273 15.4754 28.7202 15.4754H28.97C28.4397 15.084 27.967 14.6189 27.5659 14.0938Z" fill="black"/>
<path d="M34.0262 14.1894C34.0262 14.1894 33.1648 15.3016 33.0873 15.3537C33.0098 15.4059 32.9408 15.6492 33.2509 15.6057C33.6069 15.5521 33.9583 15.4708 34.3018 15.3624C34.3966 15.3103 34.3621 15.1886 34.1985 15.206C34.0348 15.2234 33.6127 15.2495 33.3371 15.3016L34.0693 14.1981C34.0693 14.1981 34.0951 14.0938 34.0262 14.1894Z" fill="black"/>
<path d="M31.3213 19.4985C31.7206 19.321 32.0506 19.0156 32.2602 18.6296C32.5014 18.0561 32.2602 17.8389 31.8812 17.7607C31.3598 17.6647 30.8216 17.7702 30.3738 18.0561C30.0378 18.3776 30.0809 18.6904 30.3738 18.925C30.6647 19.1552 30.983 19.3478 31.3213 19.4985V19.4985Z" fill="black"/>
<path d="M31.0114 20.5934C30.9125 20.7904 30.7782 20.9672 30.6152 21.1147C30.3699 21.3138 30.0683 21.4294 29.7538 21.4449C29.2796 21.4919 28.8053 21.3552 28.4273 21.0626C28.2536 20.9601 28.0991 20.8278 27.9707 20.6716C27.8846 20.5769 27.7787 20.5027 27.6606 20.4543C27.6606 20.4543 28.3067 24.0256 29.8744 24.5991C31.4421 25.1726 31.735 23.9387 31.7781 23.6085C31.8305 22.6196 31.5842 21.6379 31.0717 20.7932C31.0717 20.5325 31.0545 20.7063 31.0114 20.5934Z" fill="#F06351"/>
<path d="M29.5469 21.5839C29.1438 21.5255 28.7566 21.3852 28.4087 21.1717C28.0608 20.9581 27.7594 20.6757 27.5226 20.3414C27.5015 20.3175 27.4897 20.2865 27.4897 20.2545C27.4897 20.2224 27.5015 20.1915 27.5226 20.1676C27.5339 20.156 27.5473 20.1468 27.5621 20.1406C27.5769 20.1343 27.5927 20.1311 27.6088 20.1311C27.6248 20.1311 27.6407 20.1343 27.6555 20.1406C27.6703 20.1468 27.6837 20.156 27.6949 20.1676C27.9081 20.4692 28.1785 20.7252 28.4905 20.9206C28.8025 21.116 29.1499 21.247 29.5124 21.3059C29.7993 21.2841 30.0769 21.194 30.3225 21.043C30.5681 20.8919 30.7746 20.6842 30.9251 20.437L31.0457 20.2719L31.1319 20.463C31.1319 20.463 31.4592 21.1234 31.9932 21.1582C32.5273 21.1929 32.9063 20.7932 33.3973 20.0372C33.4156 20.0096 33.444 19.9904 33.4763 19.9839C33.5086 19.9774 33.5422 19.9841 33.5696 20.0025C33.597 20.0209 33.616 20.0496 33.6225 20.0822C33.6289 20.1148 33.6223 20.1486 33.604 20.1763C33.0298 21.0278 32.4871 21.4362 31.976 21.4014C31.7785 21.375 31.5893 21.3044 31.4224 21.1946C31.2554 21.0849 31.115 20.9388 31.0113 20.7671C30.8427 21.0045 30.6238 21.201 30.3705 21.3423C30.1172 21.4836 29.8358 21.5662 29.5469 21.5839Z" fill="black"/>
<path d="M31.2351 33.2796C33.0191 33.2796 34.4653 31.8207 34.4653 30.0211C34.4653 28.2215 33.0191 26.7627 31.2351 26.7627C29.4511 26.7627 28.0049 28.2215 28.0049 30.0211C28.0049 31.8207 29.4511 33.2796 31.2351 33.2796Z" fill="#FDC305"/>
<path d="M35.5165 27.3709L32.8204 28.5092L33.811 23.6172L27.3506 32.0978L30.0467 30.9595L29.0561 35.8602L35.5165 27.3709ZM29.1509 30.6989L32.7342 25.998L32.0365 29.4737L33.7593 28.7612L30.1501 33.4707L30.8478 29.995L29.1509 30.6989Z" fill="#111111"/>
<path d="M27.9447 29.4215C28.4776 29.4215 28.9095 28.9858 28.9095 28.4483C28.9095 27.9108 28.4776 27.4751 27.9447 27.4751C27.4119 27.4751 26.98 27.9108 26.98 28.4483C26.98 28.9858 27.4119 29.4215 27.9447 29.4215Z" fill="#111111"/>
<path d="M33.5614 32.9493C33.9372 32.9493 34.2419 32.642 34.2419 32.2629C34.2419 31.8837 33.9372 31.5764 33.5614 31.5764C33.1855 31.5764 32.8809 31.8837 32.8809 32.2629C32.8809 32.642 33.1855 32.9493 33.5614 32.9493Z" fill="#111111"/>
<path d="M34.3884 31.0638C34.5549 31.0638 34.6899 30.9277 34.6899 30.7597C34.6899 30.5917 34.5549 30.4556 34.3884 30.4556C34.2219 30.4556 34.0869 30.5917 34.0869 30.7597C34.0869 30.9277 34.2219 31.0638 34.3884 31.0638Z" fill="#111111"/>
<path d="M39.5226 18.3862C37.9676 19.8002 36.5031 21.3122 35.1379 22.9133C33.7781 24.5028 32.2435 25.9312 30.5637 27.171C30.3742 26.7104 29.1596 25.8502 29.1596 25.8502C29.1596 25.8502 26.4547 23.982 24.6802 22.5136C23.7209 21.7076 22.8172 20.8367 21.9753 19.9068L20.2524 19.8112C22.7394 23.4756 26.3828 26.1829 30.5896 27.4925C31.3304 27.3708 33.4151 25.8676 34.9743 24.6424C36.8189 23.06 38.5464 21.3437 40.1428 19.5071C40.5719 18.9927 40.9047 18.4038 41.1249 17.7693C40.1428 18.0995 39.5226 18.3862 39.5226 18.3862Z" fill="#F06351"/>
<path d="M22.3368 24.3297C22.3368 24.3297 19.0548 23.0784 17.8488 22.7395C17.2825 22.4896 16.6572 22.4084 16.0467 22.5054C15.4361 22.6024 14.8658 22.8736 14.4031 23.287C13.931 23.7039 13.5536 24.2185 13.2964 24.7957C13.0393 25.373 12.9084 25.9994 12.9128 26.6323C13.0949 27.0361 13.2335 27.4585 13.3263 27.8922C13.3694 28.3093 12.2926 28.2658 11.6034 28.2658C10.9143 28.2658 10.8109 27.0146 11.3536 25.5461C11.777 24.417 12.3018 23.3292 12.9214 22.2964C8.22664 24.7641 0 30.4642 0 30.4642C2.35316 30.3211 4.71429 30.3909 7.0551 30.6727C11.5776 31.1333 11.3622 34.7306 11.3622 34.7306C12.9529 34.2882 14.574 33.9659 16.2121 33.7661C18.0383 33.6444 18.1675 35.6082 18.1675 35.6082L18.6241 38.9622C19.3173 38.2056 20.0819 37.5189 20.9069 36.9116C21.9703 36.0529 23.3243 35.6475 24.6799 35.782V35.782L22.3368 24.3297Z" fill="#F06351"/>
<path d="M73.7902 36.4946C72.9028 35.1682 72.4785 33.5815 72.5842 31.9849V25.468C72.4723 23.8596 72.8902 22.259 73.7729 20.9149C74.5711 19.878 75.935 19.3624 77.8645 19.3682C79.794 19.374 81.1005 19.8287 81.7838 20.7324C82.6171 21.8523 83.0237 23.2369 82.9295 24.6338V26.1631H79.3633V24.5035C79.3585 24.0668 79.3211 23.6311 79.2513 23.2001C79.2082 22.8881 79.0662 22.5985 78.8465 22.3747C78.7109 22.2573 78.5534 22.1685 78.3833 22.1133C78.2132 22.0581 78.0339 22.0376 77.8559 22.0532C77.6002 22.0147 77.339 22.0566 77.1078 22.1732C76.8767 22.2898 76.6867 22.4754 76.5638 22.7049C76.3373 23.3151 76.2376 23.9657 76.271 24.6165V32.8886C76.2317 33.5436 76.3468 34.1987 76.6069 34.8002C76.7312 35.0172 76.9156 35.1928 77.1375 35.3055C77.3594 35.4182 77.6091 35.463 77.8559 35.4345C78.0984 35.4691 78.3456 35.4255 78.5621 35.3101C78.7787 35.1946 78.9536 35.0131 79.0618 34.7915C79.2702 34.1801 79.3608 33.5342 79.3289 32.8886V31.1507H82.895V32.654C83 34.0715 82.6266 35.4832 81.8355 36.6597C81.0775 37.6155 79.7682 38.0847 77.9076 38.0847C76.047 38.0847 74.5913 37.5633 73.7902 36.4946Z" fill="#111111"/>
<path d="M87.7878 19.6201H91.8708L95.3163 37.8674H91.9224L91.3109 33.8356H88.4511L87.7619 37.8413H84.3164L87.7878 19.6201ZM90.9318 31.5417L89.8465 24.208L88.7698 31.5417H90.9318Z" fill="#111111"/>
<path d="M97.9613 22.3659H95.1704V19.6201H104.404V22.3659H101.648V37.8413H97.9527L97.9613 22.3659Z" fill="#111111"/>
<path d="M111.65 19.6201H118.653V21.5144H114.174V27.5359H117.809V29.3346H114.174V36.0166H118.696V37.8413H111.65V19.6201Z" fill="#444444"/>
<path d="M120.729 19.6201H122.452L127.62 31.7241V19.6201H129.722V37.8674H128.111L122.943 25.4245V37.8413H120.807L120.729 19.6201Z" fill="#444444"/>
<path d="M132.505 19.6201H139.499V21.5144H135.02V27.5359H138.69V29.3346H135.055V36.0166H139.551V37.8413H132.505V19.6201Z" fill="#444444"/>
<path d="M141.576 19.6202H145.211C146.643 19.5039 148.07 19.9076 149.233 20.7585C150.095 21.5144 150.517 22.7483 150.517 24.4601C150.517 26.7772 149.773 28.1935 148.286 28.7091L150.87 37.8414H148.424L146.055 29.2912H144.1V37.8414H141.576V19.6202ZM145.021 27.4404C145.851 27.5214 146.681 27.2858 147.347 26.7801C147.618 26.4569 147.82 26.0813 147.941 25.6763C148.063 25.2714 148.101 24.8456 148.053 24.4253C148.071 23.8358 147.986 23.2477 147.803 22.6875C147.729 22.4809 147.615 22.2914 147.467 22.1302C147.319 21.969 147.141 21.8394 146.942 21.749C146.383 21.5176 145.78 21.4138 145.176 21.4449H144.065V27.4752L145.021 27.4404Z" fill="#444444"/>
<path d="M153.912 36.4945C153.088 35.0926 152.707 33.4714 152.818 31.8458V25.7634C152.788 24.5896 152.933 23.418 153.248 22.2877C153.497 21.438 154.026 20.6993 154.747 20.1937C155.618 19.6643 156.626 19.4101 157.641 19.4638C158.298 19.4008 158.961 19.4832 159.583 19.7053C160.205 19.9275 160.771 20.2839 161.242 20.7498C162.068 21.9176 162.459 23.3426 162.345 24.7728V25.4506H159.976V24.8858C159.992 24.2103 159.94 23.5349 159.821 22.8699C159.742 22.4438 159.509 22.0626 159.166 21.8012C158.719 21.535 158.203 21.4108 157.684 21.4449C157.122 21.3963 156.563 21.5709 156.125 21.9315C155.768 22.2734 155.535 22.7261 155.462 23.2175C155.353 23.9332 155.304 24.657 155.316 25.3811V32.1499C155.247 33.1785 155.421 34.2088 155.824 35.1564C156.058 35.4478 156.354 35.6815 156.691 35.8395C157.028 35.9975 157.397 36.0758 157.768 36.0682C158.14 36.0607 158.504 35.9675 158.835 35.796C159.165 35.6244 159.452 35.3789 159.674 35.0782C160.089 34.076 160.269 32.9906 160.2 31.9067V30.6207H157.908V28.822H162.474V37.8414H160.915L160.665 35.7473C160.467 36.443 160.043 37.0509 159.459 37.4721C158.876 37.8933 158.168 38.1031 157.452 38.0673C156.778 38.1272 156.1 38.0144 155.482 37.7395C154.863 37.4645 154.323 37.0363 153.912 36.4945V36.4945Z" fill="#444444"/>
<path d="M167.711 31.4113L163.809 19.6201H166.152L168.917 28.4136L171.639 19.6201H174.008L170.132 31.4113V37.8413H167.72L167.711 31.4113Z" fill="#444444"/>
</g>
<defs>
<clipPath id="clip0">
<rect width="174" height="51.6832" fill="white"/>
</clipPath>
</defs>
</svg>
